Coordinates
version=1
nRows=12
nColumns=46
inDegrees=yes

Units are S.I. units (second, meters, Newtons, ...)
Angles are in degrees.

endheader
time	pelvis_tilt	pelvis_list	pelvis_rotation	pelvis_tx	pelvis_ty	pelvis_tz	bb_angle	bb_tx	bb_ty	bb_tz	hip_flexion_r	hip_adduction_r	hip_rotation_r	knee_angle_r	knee_angle_r_beta	ankle_angle_r	subtalar_angle_r	mtp_angle_r	crank_angle_r	hip_flexion_l	hip_adduction_l	hip_rotation_l	knee_angle_l	knee_angle_l_beta	ankle_angle_l	subtalar_angle_l	mtp_angle_l	crank_angle_l	lumbar_extension	lumbar_bending	lumbar_rotation	arm_flex_r	arm_add_r	arm_rot_r	elbow_flex_r	pro_sup_r	wrist_flex_r	wrist_dev_r	arm_flex_l	arm_add_l	arm_rot_l	elbow_flex_l	pro_sup_l	wrist_flex_l	wrist_dev_l
      7.50000000	    -15.54845658	      2.60638712	     -5.66154121	      0.33059163	      1.06950326	     -0.31228538	      0.00000000	      0.50000000	      0.00000000	      0.25000000	     43.84060295	     -5.18868737	      1.04130331	     41.52804257	      0.72480107	     -9.86096366	     -0.92445432	      0.00000000	      0.00000000	     67.67851815	     -9.57205565	      2.30455223	    111.81219955	      1.95149103	    -12.52136501	     -7.37331690	      0.00000000	      0.00000000	    -74.45192107	     -3.62308826	     -3.04906690	     64.86850943	    -13.18422587	     24.13263892	     90.74980944	     48.52180555	      0.00000000	      0.00000000	     60.39825696	    -38.72268050	     25.76769211	    104.03339082	     47.81410729	      0.00000000	      0.00000000
      7.50500000	    -15.74200983	      3.08255510	     -5.42689081	      0.33056820	      1.06804593	     -0.31186773	      0.00000000	      0.50000000	      0.00000000	      0.25000000	     42.77203512	     -5.84739396	      0.79508975	     40.11529843	      0.70014404	    -10.35506988	     -0.57911232	      0.00000000	      0.00000000	     69.35603494	     -8.93419154	      2.40728092	    113.25654730	      1.97669965	    -11.61630863	     -7.63076033	      0.00000000	      0.00000000	    -74.08289169	     -4.02603139	     -3.80631917	     64.50916018	    -13.37878076	     23.98674154	     90.76187095	     48.50962763	      0.00000000	      0.00000000	     60.67659551	    -38.92061307	     25.97459344	    104.08383806	     47.84076981	      0.00000000	      0.00000000
      7.51000000	    -16.02436415	      3.39100801	     -5.03194478	      0.33074853	      1.06674572	     -0.31173272	      0.00000000	      0.50000000	      0.00000000	      0.25000000	     41.73189233	     -6.55104169	      0.16614878	     38.67634479	      0.67502956	    -11.19174606	      0.17597858	      0.00000000	      0.00000000	     71.14867193	     -8.28295531	      2.70312379	    114.56243966	      1.99949177	    -10.85689411	     -7.63809946	      0.00000000	      0.00000000	    -73.67066144	     -4.15779196	     -4.33578015	     63.85514935	    -13.48322145	     23.78612820	     90.75917051	     48.49110848	      0.00000000	      0.00000000	     61.01995038	    -39.41720046	     26.45052672	    104.28688316	     47.92064337	      0.00000000	      0.00000000
      7.51500000	    -16.24669115	      3.68655447	     -4.79095961	      0.33075617	      1.06553897	     -0.31144672	      0.00000000	      0.50000000	      0.00000000	      0.25000000	     40.78499447	     -7.16708997	     -0.58435580	     37.54841834	      0.65534353	    -11.68213947	      0.64552354	      0.00000000	      0.00000000	     72.85157569	     -7.74323505	      2.94985684	    115.77332025	      2.02062562	     -9.71177134	     -8.08030631	      0.00000000	      0.00000000	    -73.36492813	     -4.45260565	     -4.96394839	     63.52747882	    -13.58698870	     23.59918949	     90.76378690	     48.47157917	      0.00000000	      0.00000000	     61.29872963	    -39.75473395	     26.81610144	    104.43107760	     47.97936275	      0.00000000	      0.00000000
      7.52000000	    -16.35894537	      3.85816637	     -4.39555991	      0.33084185	      1.06467855	     -0.31129807	      0.00000000	      0.50000000	      0.00000000	      0.25000000	     39.65766311	     -7.77234728	     -1.43743107	     36.42891194	      0.63580446	    -12.25133774	      1.63676006	      0.00000000	      0.00000000	     74.43862042	     -7.11296329	      3.35547445	    116.79039492	      2.03837693	     -8.92875818	     -8.09248082	      0.00000000	      0.00000000	    -73.30043031	     -4.64582760	     -5.63916566	     62.96968751	    -13.24244487	     22.64046562	     90.81082543	     48.37216544	      0.00000000	      0.00000000	     62.47527995	    -41.54174540	     29.82194794	    105.71168125	     48.47907825	      0.00000000	      0.00000000
      7.52500000	    -16.56795361	      4.19789645	     -4.28608205	      0.33087985	      1.06383888	     -0.31081702	      0.00000000	      0.50000000	      0.00000000	      0.25000000	     38.78645176	     -8.25694225	     -1.74929074	     35.49599105	      0.61952192	    -12.60192376	      2.03121369	      0.00000000	      0.00000000	     76.01060343	     -6.71755070	      3.39614035	    117.58034591	      2.05216417	     -8.42456025	     -8.31665091	      0.00000000	      0.00000000	    -73.04996230	     -5.12345222	     -6.24434236	     62.70776344	    -13.45028176	     22.57103822	     90.74610951	     48.35406069	      0.00000000	      0.00000000	     62.70428824	    -41.69636425	     29.82447971	    105.66799931	     48.46765862	      0.00000000	      0.00000000
      7.53000000	    -16.63065953	      4.39973748	     -4.04211901	      0.33103806	      1.06343849	     -0.31066131	      0.00000000	      0.50000000	      0.00000000	      0.25000000	     37.75711200	     -8.81453536	     -2.41553893	     34.64868169	      0.60473358	    -13.10654756	      3.12913858	      0.00000000	      0.00000000	     77.34688036	     -6.24105459	      3.48200735	    118.18001950	      2.06263045	     -8.00353746	     -8.85169526	      0.00000000	      0.00000000	    -72.99963992	     -5.36369230	     -6.80387628	     62.40351785	    -13.47795864	     22.40375127	     90.49017783	     48.29156227	      0.00000000	      0.00000000	     63.28800134	    -42.34323494	     30.74445796	    106.04735263	     48.61004622	      0.00000000	      0.00000000
      7.53500000	    -16.77701229	      4.61411526	     -3.98707036	      0.33111931	      1.06302112	     -0.31025729	      0.00000000	      0.50000000	      0.00000000	      0.25000000	     36.93880365	     -9.19276136	     -2.80613760	     33.96958141	      0.59288104	    -13.61668006	      3.58176695	      0.00000000	      0.00000000	     78.73872883	     -5.84538663	      3.59817167	    118.64820258	      2.07080179	     -7.49019431	     -9.20158400	      0.00000000	      0.00000000	    -72.90401597	     -5.77373686	     -7.29031535	     62.24125958	    -13.62015917	     22.33046379	     90.39064659	     48.26613725	      0.00000000	      0.00000000	     63.69887381	    -42.61954105	     30.84206478	    106.14526744	     48.62914782	      0.00000000	      0.00000000
      7.54000000	    -16.62825651	      4.82020002	     -3.78112129	      0.33137089	      1.06352166	     -0.31011232	      0.00000000	      0.50000000	      0.00000000	      0.25000000	     35.81293647	     -9.73833671	     -3.51718172	     33.39477521	      0.58284878	    -14.07400137	      4.34421549	      0.00000000	      0.00000000	     79.67238195	     -5.38844130	      3.55314671	    118.80145184	      2.07347649	     -7.44593083	     -9.89291019	      0.00000000	      0.00000000	    -73.26704361	     -6.04719699	     -8.11917054	     62.34210101	    -13.42419673	     22.15132622	     90.04138242	     48.18466356	      0.00000000	      0.00000000	     64.82513952	    -43.93120712	     32.68341202	    107.05928335	     48.93410672	      0.00000000	      0.00000000
      7.54500000	    -16.67825525	      4.87934939	     -3.74261604	      0.33149652	      1.06381168	     -0.30982214	      0.00000000	      0.50000000	      0.00000000	      0.25000000	     35.00109803	     -9.98260146	     -3.94261368	     32.96442664	      0.57533778	    -14.57848204	      4.82327556	      0.00000000	      0.00000000	     80.75505424	     -5.18410596	      3.64218017	    118.88823258	      2.07499110	     -7.13475109	    -10.46410762	      0.00000000	      0.00000000	    -73.39482775	     -6.36027476	     -8.47856132	     62.32053653	    -13.57980505	     22.11379318	     89.89141350	     48.15520274	      0.00000000	      0.00000000	     65.19281061	    -44.11577814	     32.68543365	    107.20357719	     48.94927022	      0.00000000	      0.00000000
      7.55000000	    -16.44650415	      4.91248112	     -3.58638644	      0.33167730	      1.06496071	     -0.30984484	      0.00000000	      0.50000000	      0.00000000	      0.25000000	     33.90378894	    -10.33827686	     -4.60710456	     32.62277105	      0.56937477	    -15.08459777	      5.44124204	      0.00000000	      0.00000000	     81.39190537	     -4.83086576	      3.59403384	    118.76804570	      2.07289344	     -7.03663389	    -11.52152569	      0.00000000	      0.00000000	    -73.92358086	     -6.56266991	     -9.00919055	     62.68477141	    -13.66303005	     22.16409035	     89.48213142	     48.08721246	      0.00000000	      0.00000000	     65.92270052	    -44.64427984	     33.21740827	    107.90451577	     49.09700196	      0.00000000	      0.00000000
      7.55500000	    -16.38465372	      4.99304558	     -3.54075123	      0.33180183	      1.06603972	     -0.30956820	      0.00000000	      0.50000000	      0.00000000	      0.25000000	     33.15355300	    -10.60934467	     -5.01370416	     32.52220378	      0.56761954	    -15.58439255	      5.68999085	      0.00000000	      0.00000000	     82.05823021	     -4.67788916	      3.47886222	    118.57471281	      2.06951915	     -6.30787512	    -12.01460789	      0.00000000	      0.00000000	    -74.32612149	     -6.85610833	     -9.66191689	     63.09149429	    -13.57457701	     22.40565455	     89.00440894	     48.03153787	      0.00000000	      0.00000000	     66.74105851	    -45.62998662	     34.05099612	    108.75413053	     49.28847515	      0.00000000	      0.00000000
